<svg width="28" height="28" viewBox="0 0 28 28" fill="none" xmlns="http://www.w3.org/2000/svg">
<path d="M16.7879 11.4804H13.0249C12.8756 11.4804 12.7263 11.6002 12.7263 11.78V16.1235C12.7263 16.2732 12.8457 16.423 13.0249 16.423H15.4141C15.5634 16.423 15.7127 16.3032 15.7127 16.1235V14.7755C15.7127 14.6257 15.8322 14.4759 16.0114 14.4759H19.3861C19.655 14.4759 19.7745 14.8054 19.5952 14.9851L18.6992 15.8539C18.4604 16.0935 18.3409 16.453 18.4006 16.8124L19.1174 21.2758C19.1473 21.5154 18.9083 21.6951 18.6992 21.5754L14.6974 19.4785C14.3987 19.3286 14.0105 19.3286 13.7118 19.4785L9.70984 21.5754C9.50078 21.6951 9.23201 21.5154 9.29171 21.2758L10.0682 16.8124C10.128 16.453 10.0085 16.0935 9.76954 15.8539L6.51425 12.7085C6.33506 12.5288 6.42466 12.2293 6.66358 12.1993L11.1135 11.5403C11.4719 11.4804 11.7705 11.2707 11.9199 10.9412L13.9209 6.89722C14.0403 6.68753 14.3389 6.68753 14.4584 6.89722L15.7725 9.56321C15.9517 9.92271 16.3399 10.1623 16.7282 10.1623H26.0163C26.2552 10.1623 26.2851 9.83282 26.0461 9.80285L18.9979 8.78437C18.7888 8.75449 18.6395 8.63463 18.55 8.45492L14.4883 0.157266C14.3688 -0.0524218 14.0702 -0.0524218 13.9507 0.157266L9.85913 8.45492C9.76954 8.63463 9.59037 8.75449 9.41119 8.78437L0.272418 10.1024C0.00363021 10.1623 -0.0859654 10.4619 0.0932258 10.6117L6.72331 17.082C6.87264 17.2318 6.93237 17.4115 6.9025 17.6212L5.34951 26.7576C5.31965 26.9973 5.55857 27.177 5.76763 27.0571L13.9507 22.7436C14.1299 22.6538 14.3389 22.6538 14.5181 22.7436L22.7012 27.0571C22.9103 27.177 23.179 26.9973 23.1193 26.7576L21.5663 17.6212C21.5365 17.4415 21.5962 17.2318 21.7456 17.082L26.972 11.9896C27.1511 11.8099 27.0317 11.4804 26.7629 11.4804H16.7879Z" fill="#3EE8B5"/>
</svg>
