<svg width="23" height="16" viewBox="0 0 23 16" fill="none" xmlns="http://www.w3.org/2000/svg">
<g clip-path="url(#clip0_13_11260)">
<path fill-rule="evenodd" clip-rule="evenodd" d="M2.47805 2.49585H21.3476C21.6244 2.49585 21.8898 2.39683 22.0855 2.22058C22.2811 2.04434 22.3911 1.80528 22.3911 1.55603C22.3911 1.30677 22.2811 1.06772 22.0855 0.891472C21.8898 0.715222 21.6244 0.616211 21.3476 0.616211H2.47805C2.2013 0.616211 1.93589 0.715222 1.7402 0.891472C1.54451 1.06772 1.43457 1.30677 1.43457 1.55603C1.43457 1.80528 1.54451 2.04434 1.7402 2.22058C1.93589 2.39683 2.2013 2.49585 2.47805 2.49585ZM21.3476 6.88166H6.47805C6.2013 6.88166 5.93588 6.98067 5.74019 7.15692C5.5445 7.33317 5.43457 7.57222 5.43457 7.82148C5.43457 8.07073 5.5445 8.30978 5.74019 8.48603C5.93588 8.66228 6.2013 8.76129 6.47805 8.76129H21.3476C21.6244 8.76129 21.8898 8.66228 22.0855 8.48603C22.2811 8.30978 22.3911 8.07073 22.3911 7.82148C22.3911 7.57222 22.2811 7.33317 22.0855 7.15692C21.8898 6.98067 21.6244 6.88166 21.3476 6.88166ZM21.3476 13.1471H2.47805C2.2013 13.1471 1.93589 13.2461 1.7402 13.4224C1.54451 13.5986 1.43457 13.8377 1.43457 14.0869C1.43457 14.3362 1.54451 14.5752 1.7402 14.7515C1.93589 14.9277 2.2013 15.0267 2.47805 15.0267H21.3476C21.6244 15.0267 21.8898 14.9277 22.0855 14.7515C22.2811 14.5752 22.3911 14.3362 22.3911 14.0869C22.3911 13.8377 22.2811 13.5986 22.0855 13.4224C21.8898 13.2461 21.6244 13.1471 21.3476 13.1471Z" fill="white"/>
</g>
<defs>
<clipPath id="clip0_13_11260">
<rect width="22.9565" height="14.4105" fill="white" transform="translate(0 0.616211)"/>
</clipPath>
</defs>
</svg>
